{
  "accessors": [
    {
      "bufferView": 2,
      "componentType": 5126,
      "count": 65532,
      "max": [
        2178.61474609375,
        2075.297607421875,
        2544.81689453125
      ],
      "min": [
        833.72412109375,
        1304.360595703125,
        138.23452758789062
      ],
      "type": "VEC3"
    },
    {
      "bufferView": 2,
      "byteOffset": 786384,
      "componentType": 5126,
      "count": 65532,
      "max": [
        0.99996852874755859,
        0.99999809265136719,
        0.99992084503173828
      ],
      "min": [
        -0.99996256828308105,
        -0.9999924898147583,
        -0.99998825788497925
      ],
      "type": "VEC3"
    },
    {
      "bufferView": 3,
      "componentType": 5126,
      "count": 65532,
      "max": [
        1,
        0.85098040103912354,
        0.85098040103912354,
        1
      ],
      "min": [
        0.043137256056070328,
        0.043137256056070328,
        0,
        1
      ],
      "type": "VEC4"
    },
    {
      "bufferView": 0,
      "componentType": 5125,
      "count": 303816,
      "max": [
        65531
      ],
      "min": [
        0
      ],
      "type": "SCALAR"
    },
    {
      "bufferView": 2,
      "byteOffset": 1572768,
      "componentType": 5126,
      "count": 65532,
      "max": [
        2151.865234375,
        2059.30517578125,
        2645.877197265625
      ],
      "min": [
        818.43878173828125,
        1314.7222900390625,
        138.21334838867188
      ],
      "type": "VEC3"
    },
    {
      "bufferView": 2,
      "byteOffset": 2359152,
      "componentType": 5126,
      "count": 65532,
      "max": [
        0.99997150897979736,
        0.99998718500137329,
        0.99999868869781494
      ],
      "min": [
        -0.99999576807022095,
        -0.99999290704727173,
        -0.9999159574508667
      ],
      "type": "VEC3"
    },
    {
      "bufferView": 3,
      "byteOffset": 1048512,
      "componentType": 5126,
      "count": 65532,
      "max": [
        1,
        0.85098040103912354,
        0.85098040103912354,
        1
      ],
      "min": [
        0.043137256056070328,
        0.043137256056070328,
        0,
        1
      ],
      "type": "VEC4"
    },
    {
      "bufferView": 0,
      "byteOffset": 1215264,
      "componentType": 5125,
      "count": 311121,
      "max": [
        65531
      ],
      "min": [
        0
      ],
      "type": "SCALAR"
    },
    {
      "bufferView": 2,
      "byteOffset": 3145536,
      "componentType": 5126,
      "count": 65532,
      "max": [
        2183.57666015625,
        2096.02978515625,
        2645.877197265625
      ],
      "min": [
        869.9442138671875,
        1307.7900390625,
        151.3814697265625
      ],
      "type": "VEC3"
    },
    {
      "bufferView": 2,
      "byteOffset": 3931920,
      "componentType": 5126,
      "count": 65532,
      "max": [
        0.99999594688415527,
        0.99999487400054932,
        0.99996757507324219
      ],
      "min": [
        -0.9999879002571106,
        -0.99995315074920654,
        -0.99995660781860352
      ],
      "type": "VEC3"
    },
    {
      "bufferView": 3,
      "byteOffset": 2097024,
      "componentType": 5126,
      "count": 65532,
      "max": [
        1,
        0.85098040103912354,
        0.85098040103912354,
        1
      ],
      "min": [
        0.039215687662363052,
        0.039215687662363052,
        0,
        1
      ],
      "type": "VEC4"
    },
    {
      "bufferView": 0,
      "byteOffset": 2459748,
      "componentType": 5125,
      "count": 308733,
      "max": [
        65531
      ],
      "min": [
        0
      ],
      "type": "SCALAR"
    },
    {
      "bufferView": 2,
      "byteOffset": 4718304,
      "componentType": 5126,
      "count": 65532,
      "max": [
        2188.474609375,
        2087.389892578125,
        2642.00341796875
      ],
      "min": [
        818.31231689453125,
        1309.64697265625,
        151.05926513671875
      ],
      "type": "VEC3"
    },
    {
      "bufferView": 2,
      "byteOffset": 5504688,
      "componentType": 5126,
      "count": 65532,
      "max": [
        0.99998015165328979,
        0.99999809265136719,
        0.99999457597732544
      ],
      "min": [
        -0.99996256828308105,
        -0.9999924898147583,
        -0.99990034103393555
      ],
      "type": "VEC3"
    },
    {
      "bufferView": 3,
      "byteOffset": 3145536,
      "componentType": 5126,
      "count": 65532,
      "max": [
        1,
        0.85098040103912354,
        0.85098040103912354,
        1
      ],
      "min": [
        0.039215687662363052,
        0.039215687662363052,
        0,
        1
      ],
      "type": "VEC4"
    },
    {
      "bufferView": 0,
      "byteOffset": 3694680,
      "componentType": 5125,
      "count": 308349,
      "max": [
        65531
      ],
      "min": [
        0
      ],
      "type": "SCALAR"
    },
    {
      "bufferView": 2,
      "byteOffset": 6291072,
      "componentType": 5126,
      "count": 65532,
      "max": [
        2188.474609375,
        2058.7939453125,
        2639.598388671875
      ],
      "min": [
        818.83837890625,
        1315.5823974609375,
        139.15396118164062
      ],
      "type": "VEC3"
    },
    {
      "bufferView": 2,
      "byteOffset": 7077456,
      "componentType": 5126,
      "count": 65532,
      "max": [
        0.99998128414154053,
        0.9999881386756897,
        0.99999409914016724
      ],
      "min": [
        -0.99999260902404785,
        -0.99999499320983887,
        -0.99985736608505249
      ],
      "type": "VEC3"
    },
    {
      "bufferView": 3,
      "byteOffset": 4194048,
      "componentType": 5126,
      "count": 65532,
      "max": [
        1,
        0.85098040103912354,
        0.85098040103912354,
        1
      ],
      "min": [
        0.043137256056070328,
        0.043137256056070328,
        0,
        1
      ],
      "type": "VEC4"
    },
    {
      "bufferView": 0,
      "byteOffset": 4928076,
      "componentType": 5125,
      "count": 267942,
      "max": [
        65531
      ],
      "min": [
        0
      ],
      "type": "SCALAR"
    },
    {
      "bufferView": 2,
      "byteOffset": 7863840,
      "componentType": 5126,
      "count": 41076,
      "max": [
        2184.44189453125,
        2096.0673828125,
        2642.875
      ],
      "min": [
        818.3560791015625,
        1307.0703125,
        138.36083984375
      ],
      "type": "VEC3"
    },
    {
      "bufferView": 2,
      "byteOffset": 8356752,
      "componentType": 5126,
      "count": 41076,
      "max": [
        0.99999433755874634,
        0.9999048113822937,
        0.99988621473312378
      ],
      "min": [
        -0.99998342990875244,
        -0.9999924898147583,
        -0.99999284744262695
      ],
      "type": "VEC3"
    },
    {
      "bufferView": 3,
      "byteOffset": 5242560,
      "componentType": 5126,
      "count": 41076,
      "max": [
        1,
        0.85098040103912354,
        0.85098040103912354,
        1
      ],
      "min": [
        0.039215687662363052,
        0.039215687662363052,
        0,
        1
      ],
      "type": "VEC4"
    },
    {
      "bufferView": 0,
      "byteOffset": 5999844,
      "componentType": 5125,
      "count": 86895,
      "max": [
        41075
      ],
      "min": [
        0
      ],
      "type": "SCALAR"
    },
    {
      "bufferView": 2,
      "byteOffset": 8849664,
      "componentType": 5126,
      "count": 399,
      "max": [
        2210.257568359375,
        2388.373779296875,
        2239.69873046875
      ],
      "min": [
        646.4378662109375,
        858.72589111328125,
        1089.6788330078125
      ],
      "type": "VEC3"
    },
    {
      "bufferView": 2,
      "byteOffset": 8854452,
      "componentType": 5126,
      "count": 399,
      "max": [
        0.96110385656356812,
        0.96625149250030518,
        0.96707725524902344
      ],
      "min": [
        -0.94576895236968994,
        -0.97098010778427124,
        -0.95918095111846924
      ],
      "type": "VEC3"
    },
    {
      "bufferView": 3,
      "byteOffset": 5899776,
      "componentType": 5126,
      "count": 399,
      "max": [
        0.54901963472366333,
        0.34509804844856262,
        0.19215686619281769,
        1
      ],
      "min": [
        0.22352941334247589,
        0.17647059261798859,
        0.13333334028720856,
        1
      ],
      "type": "VEC4"
    },
    {
      "bufferView": 0,
      "byteOffset": 6347424,
      "componentType": 5125,
      "count": 2310,
      "max": [
        398
      ],
      "min": [
        0
      ],
      "type": "SCALAR"
    },
    {
      "bufferView": 2,
      "byteOffset": 8859240,
      "componentType": 5126,
      "count": 31666,
      "max": [
        3021.941650390625,
        3106.24560546875,
        2077.45556640625
      ],
      "min": [
        0,
        0,
        0
      ],
      "type": "VEC3"
    },
    {
      "bufferView": 2,
      "byteOffset": 9239232,
      "componentType": 5126,
      "count": 31666,
      "max": [
        0.99999016523361206,
        0.9999966025352478,
        0.99999618530273438
      ],
      "min": [
        -0.9999200701713562,
        -0.99999123811721802,
        -0.99999833106994629
      ],
      "type": "VEC3"
    },
    {
      "bufferView": 3,
      "byteOffset": 5906160,
      "componentType": 5126,
      "count": 31666,
      "max": [
        0.66666668653488159,
        0.4117647111415863,
        0.22352941334247589,
        1
      ],
      "min": [
        0.15294118225574493,
        0.14901961386203766,
        0.12156862765550613,
        1
      ],
      "type": "VEC4"
    },
    {
      "bufferView": 0,
      "byteOffset": 6356664,
      "componentType": 5125,
      "count": 108204,
      "max": [
        31665
      ],
      "min": [
        0
      ],
      "type": "SCALAR"
    },
    {
      "bufferView": 2,
      "byteOffset": 9619224,
      "componentType": 5126,
      "count": 4291,
      "max": [
        2234.833740234375,
        2080.68359375,
        2038.8834228515625
      ],
      "min": [
        1023.1796875,
        1069.947509765625,
        382.3165283203125
      ],
      "type": "VEC3"
    },
    {
      "bufferView": 2,
      "byteOffset": 9670716,
      "componentType": 5126,
      "count": 4291,
      "max": [
        0.99918085336685181,
        0.99994760751724243,
        0.9909050464630127
      ],
      "min": [
        -0.99940484762191772,
        -0.99991762638092041,
        -0.99998742341995239
      ],
      "type": "VEC3"
    },
    {
      "bufferView": 1,
      "componentType": 5126,
      "count": 4291,
      "max": [
        1,
        1
      ],
      "min": [
        0,
        -82.2115478515625
      ],
      "type": "VEC2"
    },
    {
      "bufferView": 0,
      "byteOffset": 6789480,
      "componentType": 5125,
      "count": 11616,
      "max": [
        4290
      ],
      "min": [
        0
      ],
      "type": "SCALAR"
    }
  ],
  "asset": {
    "extras": {
      "author": "martinjario (https://sketchfab.com/martinjario)",
      "license": "CC-BY-4.0 (http://creativecommons.org/licenses/by/4.0/)",
      "source": "https://sketchfab.com/3d-models/future-trunks-dbz-973d2900de224a7395cc57e0ed51ac46",
      "title": "Future trunks DBZ"
    },
    "generator": "Sketchfab-10.29.0",
    "version": "2.0"
  },
  "bufferViews": [
    {
      "buffer": 0,
      "byteLength": 6835944,
      "byteOffset": 0,
      "name": "floatBufferViews",
      "target": 34963
    },
    {
      "buffer": 0,
      "byteLength": 34328,
      "byteOffset": 6835944,
      "byteStride": 8,
      "name": "floatBufferViews",
      "target": 34962
    },
    {
      "buffer": 0,
      "byteLength": 9722208,
      "byteOffset": 6870272,
      "byteStride": 12,
      "name": "floatBufferViews",
      "target": 34962
    },
    {
      "buffer": 0,
      "byteLength": 6412816,
      "byteOffset": 16592480,
      "byteStride": 16,
      "name": "floatBufferViews",
      "target": 34962
    }
  ],
  "buffers": [
    {
      "byteLength": 23005296,
      "uri": "scene.bin"
    }
  ],
  "materials": [
    {
      "doubleSided": true,
      "emissiveFactor": [
        0,
        0,
        0
      ],
      "name": "material_0",
      "pbrMetallicRoughness": {
        "baseColorFactor": [
          1,
          1,
          1,
          1
        ],
        "metallicFactor": 0,
        "roughnessFactor": 0.46000000000000002
      }
    },
    {
      "alphaMode": "BLEND",
      "doubleSided": false,
      "emissiveFactor": [
        0.16535775354275739,
        1,
        1
      ],
      "name": "defaultMat",
      "pbrMetallicRoughness": {
        "baseColorFactor": [
          0.61286624991649297,
          0,
          1,
          0.5
        ],
        "metallicFactor": 0,
        "roughnessFactor": 0.40000000000000002
      }
    }
  ],
  "meshes": [
    {
      "primitives": [
        {
          "attributes": {
            "COLOR_0": 2,
            "NORMAL": 1,
            "POSITION": 0
          },
          "indices": 3,
          "material": 0,
          "mode": 4
        }
      ]
    },
    {
      "primitives": [
        {
          "attributes": {
            "COLOR_0": 6,
            "NORMAL": 5,
            "POSITION": 4
          },
          "indices": 7,
          "material": 0,
          "mode": 4
        }
      ]
    },
    {
      "primitives": [
        {
          "attributes": {
            "COLOR_0": 10,
            "NORMAL": 9,
            "POSITION": 8
          },
          "indices": 11,
          "material": 0,
          "mode": 4
        }
      ]
    },
    {
      "primitives": [
        {
          "attributes": {
            "COLOR_0": 14,
            "NORMAL": 13,
            "POSITION": 12
          },
          "indices": 15,
          "material": 0,
          "mode": 4
        }
      ]
    },
    {
      "primitives": [
        {
          "attributes": {
            "COLOR_0": 18,
            "NORMAL": 17,
            "POSITION": 16
          },
          "indices": 19,
          "material": 0,
          "mode": 4
        }
      ]
    },
    {
      "primitives": [
        {
          "attributes": {
            "COLOR_0": 22,
            "NORMAL": 21,
            "POSITION": 20
          },
          "indices": 23,
          "material": 0,
          "mode": 4
        }
      ]
    },
    {
      "primitives": [
        {
          "attributes": {
            "COLOR_0": 26,
            "NORMAL": 25,
            "POSITION": 24
          },
          "indices": 27,
          "material": 0,
          "mode": 4
        }
      ]
    },
    {
      "primitives": [
        {
          "attributes": {
            "COLOR_0": 30,
            "NORMAL": 29,
            "POSITION": 28
          },
          "indices": 31,
          "material": 0,
          "mode": 4
        }
      ]
    },
    {
      "primitives": [
        {
          "attributes": {
            "NORMAL": 33,
            "POSITION": 32,
            "TEXCOORD_0": 34
          },
          "indices": 35,
          "material": 1,
          "mode": 4
        }
      ]
    }
  ],
  "nodes": [
    {
      "children": [
        1
      ],
      "name": "RootNode (gltf orientation matrix)",
      "rotation": [
        -0.70710678118654746,
        -0,
        -0,
        0.70710678118654757
      ]
    },
    {
      "children": [
        2
      ],
      "matrix": [
        0.00083230965537950397,
        0,
        0,
        0,
        0,
        0.00083230965537950397,
        0,
        0,
        0,
        0,
        0.00083230965537950397,
        0,
        0,
        0,
        0,
        1
      ],
      "name": "RootNode (model correction matrix)"
    },
    {
      "children": [
        3
      ],
      "matrix": [
        1,
        0,
        0,
        0,
        0,
        1,
        0,
        0,
        0,
        0,
        1,
        0,
        -513.265869140625,
        -1222.09521484375,
        -605.9072265625,
        1
      ],
      "name": "zbrush_concat.osgb.cleaner.gles"
    },
    {
      "children": [
        4,
        13
      ],
      "name": ""
    },
    {
      "children": [
        5,
        6,
        7,
        8,
        9,
        10,
        11,
        12
      ],
      "name": "/sketchfab-data/processing/c7a4ddb6d6984267b1f2a4f0bc5b0604/preprocess/SubTool-0-15779422.OBJ"
    },
    {
      "mesh": 0,
      "name": ""
    },
    {
      "mesh": 1,
      "name": ""
    },
    {
      "mesh": 2,
      "name": ""
    },
    {
      "mesh": 3,
      "name": ""
    },
    {
      "mesh": 4,
      "name": ""
    },
    {
      "mesh": 5,
      "name": ""
    },
    {
      "mesh": 6,
      "name": ""
    },
    {
      "mesh": 7,
      "name": ""
    },
    {
      "children": [
        14
      ],
      "name": "/sketchfab-data/processing/c7a4ddb6d6984267b1f2a4f0bc5b0604/preprocess/SubTool-1-11413543.OBJ"
    },
    {
      "mesh": 8,
      "name": ""
    }
  ],
  "scene": 0,
  "scenes": [
    {
      "name": "OSG_Scene",
      "nodes": [
        0
      ]
    }
  ]
}

