{
  "accessors": [
    {
      "bufferView": 3,
      "componentType": 5126,
      "count": 6390,
      "max": [
        0.40707486867904663,
        0.30052554607391357,
        0.98494309186935425
      ],
      "min": [
        -0.40707486867904663,
        -0.27300211787223816,
        0.0034884361084550619
      ],
      "type": "VEC3"
    },
    {
      "bufferView": 3,
      "byteOffset": 76680,
      "componentType": 5126,
      "count": 6390,
      "max": [
        1,
        0.99995499849319458,
        0.99994021654129028
      ],
      "min": [
        -1,
        -0.99891477823257446,
        -1
      ],
      "type": "VEC3"
    },
    {
      "bufferView": 4,
      "componentType": 5126,
      "count": 6390,
      "max": [
        0.99980741739273071,
        1,
        0.9999271035194397,
        1
      ],
      "min": [
        -0.99980741739273071,
        -0.9999123215675354,
        -0.99942076206207275,
        -1
      ],
      "type": "VEC4"
    },
    {
      "bufferView": 2,
      "componentType": 5126,
      "count": 6390,
      "max": [
        0.92890000343322754,
        0.97554999589920044
      ],
      "min": [
        0.02232000045478344,
        0.12544000148773193
      ],
      "type": "VEC2"
    },
    {
      "bufferView": 1,
      "componentType": 5125,
      "count": 33708,
      "max": [
        6389
      ],
      "min": [
        0
      ],
      "type": "SCALAR"
    },
    {
      "bufferView": 5,
      "componentType": 5126,
      "count": 22,
      "max": [
        1,
        0.97839999198913574,
        1,
        0,
        0.99998998641967773,
        1,
        0.94840997457504272,
        0,
        0.99772000312805176,
        0.99998998641967773,
        1,
        0,
        0.61588001251220703,
        0.45359000563621521,
        0.31057998538017273,
        1
      ],
      "min": [
        -0.80351001024246216,
        -0.97839999198913574,
        -1,
        0,
        -0.9995800256729126,
        -0.95184999704360962,
        -0.90627998113632202,
        0,
        -0.99770998954772949,
        -0.99997997283935547,
        -0.31327998638153076,
        0,
        -0.61588001251220703,
        -0.67469000816345215,
        -0.384909987449646,
        1
      ],
      "type": "MAT4"
    },
    {
      "bufferView": 0,
      "componentType": 5123,
      "count": 6390,
      "max": [
        21,
        21,
        21,
        21
      ],
      "min": [
        1,
        1,
        1,
        1
      ],
      "type": "VEC4"
    },
    {
      "bufferView": 4,
      "byteOffset": 102240,
      "componentType": 5126,
      "count": 6390,
      "max": [
        1,
        0.5,
        0.33229348063468933,
        0.2118459939956665
      ],
      "min": [
        0.27905571460723877,
        0,
        0,
        0
      ],
      "type": "VEC4"
    }
  ],
  "asset": {
    "extras": {
      "author": "Juan Mendoza (https://sketchfab.com/juanmendoza)",
      "license": "CC-BY-SA-4.0 (http://creativecommons.org/licenses/by-sa/4.0/)",
      "source": "https://sketchfab.com/models/60ff10e7c90e4b30aa6fa23c1f8327ce",
      "title": "Zeno Sama / Omni King"
    },
    "generator": "Sketchfab-3.18.7",
    "version": "2.0"
  },
  "bufferViews": [
    {
      "buffer": 0,
      "byteLength": 51120,
      "byteOffset": 0,
      "byteStride": 8,
      "name": "shortBufferViews",
      "target": 34962
    },
    {
      "buffer": 0,
      "byteLength": 134832,
      "byteOffset": 51120,
      "name": "floatBufferViews",
      "target": 34963
    },
    {
      "buffer": 0,
      "byteLength": 51120,
      "byteOffset": 185952,
      "byteStride": 8,
      "name": "floatBufferViews",
      "target": 34962
    },
    {
      "buffer": 0,
      "byteLength": 153360,
      "byteOffset": 237072,
      "byteStride": 12,
      "name": "floatBufferViews",
      "target": 34962
    },
    {
      "buffer": 0,
      "byteLength": 204480,
      "byteOffset": 390432,
      "byteStride": 16,
      "name": "floatBufferViews",
      "target": 34962
    },
    {
      "buffer": 0,
      "byteLength": 1408,
      "byteOffset": 594912,
      "byteStride": 64,
      "name": "floatBufferViews"
    }
  ],
  "buffers": [
    {
      "byteLength": 596320,
      "uri": "scene.bin"
    }
  ],
  "images": [
    {
      "uri": "textures/ZenoSama_baseColor.png"
    }
  ],
  "materials": [
    {
      "doubleSided": true,
      "emissiveFactor": [
        0,
        0,
        0
      ],
      "name": "ZenoSama",
      "pbrMetallicRoughness": {
        "baseColorFactor": [
          1,
          1,
          1,
          1
        ],
        "baseColorTexture": {
          "index": 0,
          "texCoord": 0
        },
        "metallicFactor": 0,
        "roughnessFactor": 0.59999999999999998
      }
    }
  ],
  "meshes": [
    {
      "name": "ZenoSama",
      "primitives": [
        {
          "attributes": {
            "JOINTS_0": 6,
            "NORMAL": 1,
            "POSITION": 0,
            "TANGENT": 2,
            "TEXCOORD_0": 3,
            "WEIGHTS_0": 7
          },
          "indices": 4,
          "material": 0,
          "mode": 4
        }
      ]
    }
  ],
  "nodes": [
    {
      "children": [
        1
      ],
      "name": "RootNode (gltf orientation matrix)",
      "rotation": [
        -0.70710678118654746,
        -0,
        -0,
        0.70710678118654757
      ]
    },
    {
      "children": [
        2
      ],
      "name": "RootNode (model correction matrix)"
    },
    {
      "children": [
        3
      ],
      "name": "Root"
    },
    {
      "children": [
        4,
        27,
        26
      ],
      "matrix": [
        0.50812000000000002,
        0,
        0,
        0,
        0,
        0.50812000000000002,
        0,
        0,
        0,
        0,
        0.50812000000000002,
        0,
        0,
        0,
        0,
        1
      ],
      "name": "ZenoSama_Armature"
    },
    {
      "children": [
        5
      ],
      "name": "ZenoSama_Armature_rootJoint"
    },
    {
      "children": [
        6,
        9,
        12
      ],
      "name": "hips_ZenoSama_Armature",
      "rotation": [
        0.52988451719284058,
        -0.46821191906929016,
        -0.52988451719284058,
        0.46821191906929016
      ],
      "scale": [
        0.99999701976776123,
        0.99999701976776123,
        1
      ],
      "translation": [
        0,
        -0.0046500000171363354,
        0.26489999890327454
      ]
    },
    {
      "children": [
        7
      ],
      "name": "thigh.L_ZenoSama_Armature",
      "rotation": [
        0.99262100458145142,
        0.059841644018888474,
        -0.10543797165155411,
        -0.002322204876691103
      ],
      "scale": [
        0.9999958872795105,
        1.0000025033950806,
        1.000005841255188
      ],
      "translation": [
        -0.045970000326633453,
        0.019360000267624855,
        -0.038550000637769699
      ]
    },
    {
      "children": [
        8
      ],
      "name": "shin.L_ZenoSama_Armature",
      "rotation": [
        -0.011895378120243549,
        -0.076100699603557587,
        0.0012536878930404782,
        0.9970284104347229
      ],
      "scale": [
        1.0000158548355103,
        0.99999678134918213,
        0.99999505281448364
      ],
      "translation": [
        0,
        0.11772000044584274,
        0
      ]
    },
    {
      "name": "foot.L_ZenoSama_Armature",
      "rotation": [
        -0.033026557415723801,
        0.0050514242611825466,
        -0.68968045711517334,
        0.7233426570892334
      ],
      "scale": [
        1.0000056028366089,
        0.99997282028198242,
        1.0000230073928833
      ],
      "translation": [
        0,
        0.15496000647544861,
        0
      ]
    },
    {
      "children": [
        10
      ],
      "name": "thigh.R_ZenoSama_Armature",
      "rotation": [
        -0.10543504357337952,
        0.0023220684379339218,
        0.99262142181396484,
        -0.059841081500053406
      ],
      "scale": [
        1.0000154972076416,
        1.0000028610229492,
        0.99999338388442993
      ],
      "translation": [
        -0.045970000326633453,
        0.019360000267624855,
        0.038550000637769699
      ]
    },
    {
      "children": [
        11
      ],
      "name": "shin.R_ZenoSama_Armature",
      "rotation": [
        -0.011895318515598774,
        0.076100699603557587,
        -0.0012537193251773715,
        0.9970284104347229
      ],
      "scale": [
        0.99998587369918823,
        0.99997609853744507,
        1.000025749206543
      ],
      "translation": [
        0,
        0.11772000044584274,
        0
      ]
    },
    {
      "name": "foot.R_ZenoSama_Armature",
      "rotation": [
        -0.033024922013282776,
        -0.0050497259944677353,
        0.68968069553375244,
        0.72334253787994385
      ],
      "scale": [
        1.0000159740447998,
        0.99998265504837036,
        1.0000022649765015
      ],
      "translation": [
        0,
        0.15496000647544861,
        0
      ]
    },
    {
      "children": [
        13
      ],
      "name": "spine_ZenoSama_Armature",
      "rotation": [
        0,
        0,
        0.076120957732200623,
        0.99709868431091309
      ],
      "scale": [
        0.99999880790710449,
        0.99999880790710449,
        1
      ],
      "translation": [
        0,
        0.097699999809265137,
        0
      ]
    },
    {
      "children": [
        14,
        19,
        24
      ],
      "name": "chest_ZenoSama_Armature",
      "rotation": [
        0,
        0,
        0.042322821915149689,
        0.9991040825843811
      ],
      "scale": [
        1.0000025033950806,
        1.0000025033950806,
        1
      ],
      "translation": [
        0,
        0.18021999299526215,
        0
      ]
    },
    {
      "children": [
        15
      ],
      "name": "clavicle.R_ZenoSama_Armature",
      "rotation": [
        0.61162149906158447,
        -0.41096112132072449,
        -0.47616264224052429,
        0.47989505529403687
      ],
      "scale": [
        0.99999648332595825,
        1.0000051259994507,
        1.000001072883606
      ],
      "translation": [
        0.0028200000524520874,
        0.1154400035738945,
        0.028310000896453857
      ]
    },
    {
      "children": [
        16
      ],
      "name": "upper_arm.R_ZenoSama_Armature",
      "rotation": [
        0.40044069290161133,
        0.90141040086746216,
        0.15925042331218719,
        -0.04178377240896225
      ],
      "scale": [
        0.99999320507049561,
        0.99999666213989258,
        1.0000051259994507
      ],
      "translation": [
        0,
        0.1884399950504303,
        0
      ]
    },
    {
      "children": [
        17,
        18
      ],
      "name": "forearm.R_ZenoSama_Armature",
      "rotation": [
        -0.005377704743295908,
        0.76565361022949219,
        0.01935960166156292,
        0.64293926954269409
      ],
      "scale": [
        1.0000045299530029,
        1.0000076293945312,
        1.0000004768371582
      ],
      "translation": [
        0,
        0.22437000274658203,
        0
      ]
    },
    {
      "name": "hand.R_ZenoSama_Armature",
      "rotation": [
        -0.14865392446517944,
        -0.6812397837638855,
        0.067099504172801971,
        0.71366101503372192
      ],
      "scale": [
        1.0000003576278687,
        1.000003457069397,
        0.99998986721038818
      ],
      "translation": [
        0,
        0.17511999607086182,
        0
      ]
    },
    {
      "name": "thumb.02.R_ZenoSama_Armature",
      "rotation": [
        -0.47410154342651367,
        0.57332593202590942,
        -0.4154306948184967,
        0.5233951210975647
      ],
      "scale": [
        1.0000020265579224,
        1.0000005960464478,
        0.99999529123306274
      ],
      "translation": [
        -0.0089499996975064278,
        0.16016000509262085,
        -0.020230000838637352
      ]
    },
    {
      "children": [
        20
      ],
      "name": "clavicle.L_ZenoSama_Armature",
      "rotation": [
        -0.47616264224052429,
        -0.47989505529403687,
        0.61162149906158447,
        0.41096112132072449
      ],
      "scale": [
        0.99999648332595825,
        1.0000051259994507,
        1.000001072883606
      ],
      "translation": [
        0.0028200000524520874,
        0.1154400035738945,
        -0.028310000896453857
      ]
    },
    {
      "children": [
        21
      ],
      "name": "upper_arm.L_ZenoSama_Armature",
      "rotation": [
        -0.40044069290161133,
        0.90141040086746216,
        0.15925042331218719,
        0.04178377240896225
      ],
      "scale": [
        0.99999320507049561,
        0.99999666213989258,
        1.0000051259994507
      ],
      "translation": [
        0,
        0.1884399950504303,
        0
      ]
    },
    {
      "children": [
        22,
        23
      ],
      "name": "forearm.L_ZenoSama_Armature",
      "rotation": [
        -0.0053777317516505718,
        -0.76565361022949219,
        -0.01935969851911068,
        0.64293926954269409
      ],
      "scale": [
        1.0000045299530029,
        0.99999713897705078,
        1.0000008344650269
      ],
      "translation": [
        0,
        0.22437000274658203,
        0
      ]
    },
    {
      "name": "hand.L_ZenoSama_Armature",
      "rotation": [
        -0.14865373075008392,
        0.68123984336853027,
        -0.067099705338478088,
        0.71366095542907715
      ],
      "scale": [
        1.0000005960464478,
        0.9999963641166687,
        1.0000066757202148
      ],
      "translation": [
        0,
        0.17511999607086182,
        0
      ]
    },
    {
      "name": "thumb.02.L_ZenoSama_Armature",
      "rotation": [
        -0.47410154342651367,
        -0.57332593202590942,
        0.4154306948184967,
        0.5233951210975647
      ],
      "scale": [
        1.0000020265579224,
        1.0000005960464478,
        0.99999529123306274
      ],
      "translation": [
        0.0089499996975064278,
        0.16016000509262085,
        -0.020230000838637352
      ]
    },
    {
      "children": [
        25
      ],
      "name": "neck_ZenoSama_Armature",
      "rotation": [
        0.11243264377117157,
        0.9936593770980835,
        0,
        0
      ],
      "scale": [
        1.0000022649765015,
        1.0000022649765015,
        1
      ],
      "translation": [
        0,
        0.10627000033855438,
        0
      ]
    },
    {
      "name": "head_ZenoSama_Armature",
      "rotation": [
        0,
        0,
        -0.053868021816015244,
        0.99854809045791626
      ],
      "scale": [
        1.0000035762786865,
        1.0000035762786865,
        1
      ],
      "translation": [
        0,
        0.027259999886155128,
        0
      ]
    },
    {
      "matrix": [
        0.40005000000000002,
        0,
        0,
        0,
        0,
        0.40005000000000002,
        0,
        0,
        0,
        0,
        0.40005000000000002,
        0,
        0,
        0,
        0,
        1
      ],
      "name": "ZenoSama"
    },
    {
      "mesh": 0,
      "name": "ZenoSama_0",
      "skin": 0
    }
  ],
  "samplers": [
    {
      "magFilter": 9729,
      "minFilter": 9987,
      "wrapS": 10497,
      "wrapT": 10497
    }
  ],
  "scene": 0,
  "scenes": [
    {
      "name": "OSG_Scene",
      "nodes": [
        0
      ]
    }
  ],
  "skins": [
    {
      "inverseBindMatrices": 5,
      "joints": [
        4,
        5,
        6,
        7,
        8,
        9,
        10,
        11,
        12,
        13,
        14,
        15,
        16,
        17,
        18,
        19,
        20,
        21,
        22,
        23,
        24,
        25
      ],
      "skeleton": 4
    }
  ],
  "textures": [
    {
      "sampler": 0,
      "source": 0
    }
  ]
}

