{
  "accessors": [
    {
      "bufferView": 2,
      "componentType": 5126,
      "count": 4951,
      "max": [
        0.70387101173400879,
        0.37198999524116516,
        2.6869609355926514
      ],
      "min": [
        -0.71859997510910034,
        -0.33763200044631958,
        0.0085509996861219406
      ],
      "type": "VEC3"
    },
    {
      "bufferView": 2,
      "byteOffset": 59412,
      "componentType": 5126,
      "count": 4951,
      "max": [
        0.99984681606292725,
        0.99969398975372314,
        0.99995261430740356
      ],
      "min": [
        -0.99983453750610352,
        -0.99900370836257935,
        -0.9989858865737915
      ],
      "type": "VEC3"
    },
    {
      "bufferView": 3,
      "componentType": 5126,
      "count": 4951,
      "max": [
        0.99998944997787476,
        0.99994575977325439,
        0.99980974197387695,
        1
      ],
      "min": [
        -0.99997395277023315,
        -0.9994390606880188,
        -0.99789804220199585,
        -1
      ],
      "type": "VEC4"
    },
    {
      "bufferView": 1,
      "componentType": 5126,
      "count": 4951,
      "max": [
        0.99546998739242554,
        0.99422997236251831
      ],
      "min": [
        0.0070699998177587986,
        0.0036299999337643385
      ],
      "type": "VEC2"
    },
    {
      "bufferView": 0,
      "componentType": 5125,
      "count": 15648,
      "max": [
        4950
      ],
      "min": [
        0
      ],
      "type": "SCALAR"
    },
    {
      "bufferView": 2,
      "byteOffset": 118824,
      "componentType": 5126,
      "count": 166,
      "max": [
        0.47185000777244568,
        0.29289999604225159,
        1.6729090213775635
      ],
      "min": [
        -0.44976100325584412,
        -0.39219999313354492,
        0.92614299058914185
      ],
      "type": "VEC3"
    },
    {
      "bufferView": 2,
      "byteOffset": 120816,
      "componentType": 5126,
      "count": 166,
      "max": [
        0.97734218835830688,
        0.9981529712677002,
        0.96646946668624878
      ],
      "min": [
        -0.96950286626815796,
        -0.99672311544418335,
        -0.9647257924079895
      ],
      "type": "VEC3"
    },
    {
      "bufferView": 3,
      "byteOffset": 79216,
      "componentType": 5126,
      "count": 166,
      "max": [
        0.9976811408996582,
        0.99605041742324829,
        0.573982834815979,
        1
      ],
      "min": [
        -0.99961364269256592,
        -0.95845192670822144,
        -0.79327553510665894,
        -1
      ],
      "type": "VEC4"
    },
    {
      "bufferView": 1,
      "byteOffset": 39608,
      "componentType": 5126,
      "count": 166,
      "max": [
        0.94234997034072876,
        0.97570997476577759
      ],
      "min": [
        0.052230000495910645,
        0.020549999549984932
      ],
      "type": "VEC2"
    },
    {
      "bufferView": 0,
      "byteOffset": 62592,
      "componentType": 5125,
      "count": 636,
      "max": [
        165
      ],
      "min": [
        0
      ],
      "type": "SCALAR"
    },
    {
      "bufferView": 2,
      "byteOffset": 122808,
      "componentType": 5126,
      "count": 805,
      "max": [
        0.33759298920631409,
        0.51525598764419556,
        2.9222118854522705
      ],
      "min": [
        -0.36880901455879211,
        -0.20363700389862061,
        2.391942024230957
      ],
      "type": "VEC3"
    },
    {
      "bufferView": 2,
      "byteOffset": 132468,
      "componentType": 5126,
      "count": 805,
      "max": [
        0.99638926982879639,
        0.99687480926513672,
        0.97645503282546997
      ],
      "min": [
        -0.99289906024932861,
        -0.96838027238845825,
        -0.99446487426757812
      ],
      "type": "VEC3"
    },
    {
      "bufferView": 3,
      "byteOffset": 81872,
      "componentType": 5126,
      "count": 805,
      "max": [
        0.98578822612762451,
        0.99999874830245972,
        0.99959295988082886,
        1
      ],
      "min": [
        -0.98600351810455322,
        -0.99996727705001831,
        -0.98602527379989624,
        -1
      ],
      "type": "VEC4"
    },
    {
      "bufferView": 1,
      "byteOffset": 40936,
      "componentType": 5126,
      "count": 805,
      "max": [
        1.0000100135803223,
        1
      ],
      "min": [
        0,
        -9.9999997473787516e-06
      ],
      "type": "VEC2"
    },
    {
      "bufferView": 0,
      "byteOffset": 65136,
      "componentType": 5125,
      "count": 1896,
      "max": [
        804
      ],
      "min": [
        0
      ],
      "type": "SCALAR"
    }
  ],
  "asset": {
    "extras": {
      "author": "cheesycake00777 (https://sketchfab.com/cheesycake00777)",
      "license": "CC-BY-4.0 (http://creativecommons.org/licenses/by/4.0/)",
      "source": "https://sketchfab.com/models/eafcd3c777d34cdeaf20226c9154c468",
      "title": "Dragon ball zBroly"
    },
    "generator": "Sketchfab-3.18.6",
    "version": "2.0"
  },
  "bufferViews": [
    {
      "buffer": 0,
      "byteLength": 72720,
      "byteOffset": 0,
      "name": "floatBufferViews",
      "target": 34963
    },
    {
      "buffer": 0,
      "byteLength": 47376,
      "byteOffset": 72720,
      "byteStride": 8,
      "name": "floatBufferViews",
      "target": 34962
    },
    {
      "buffer": 0,
      "byteLength": 142128,
      "byteOffset": 120096,
      "byteStride": 12,
      "name": "floatBufferViews",
      "target": 34962
    },
    {
      "buffer": 0,
      "byteLength": 94752,
      "byteOffset": 262224,
      "byteStride": 16,
      "name": "floatBufferViews",
      "target": 34962
    }
  ],
  "buffers": [
    {
      "byteLength": 356976,
      "uri": "scene.bin"
    }
  ],
  "images": [
    {
      "uri": "textures/cloth.png_baseColor.png"
    },
    {
      "uri": "textures/hair.png_baseColor.png"
    },
    {
      "uri": "textures/body.png_baseColor.png"
    }
  ],
  "materials": [
    {
      "doubleSided": true,
      "emissiveFactor": [
        0,
        0,
        0
      ],
      "name": "body.png",
      "pbrMetallicRoughness": {
        "baseColorFactor": [
          1,
          1,
          1,
          1
        ],
        "baseColorTexture": {
          "index": 2,
          "texCoord": 0
        },
        "metallicFactor": 0,
        "roughnessFactor": 0.84349154199999998
      }
    },
    {
      "doubleSided": true,
      "emissiveFactor": [
        0,
        0,
        0
      ],
      "name": "cloth.png",
      "pbrMetallicRoughness": {
        "baseColorFactor": [
          1,
          1,
          1,
          1
        ],
        "baseColorTexture": {
          "index": 0,
          "texCoord": 0
        },
        "metallicFactor": 0,
        "roughnessFactor": 0.84349154199999998
      }
    },
    {
      "doubleSided": true,
      "emissiveFactor": [
        0,
        0,
        0
      ],
      "name": "hair.png",
      "pbrMetallicRoughness": {
        "baseColorFactor": [
          1,
          1,
          1,
          1
        ],
        "baseColorTexture": {
          "index": 1,
          "texCoord": 0
        },
        "metallicFactor": 0,
        "roughnessFactor": 0.84349154199999998
      }
    }
  ],
  "meshes": [
    {
      "primitives": [
        {
          "attributes": {
            "NORMAL": 1,
            "POSITION": 0,
            "TANGENT": 2,
            "TEXCOORD_0": 3
          },
          "indices": 4,
          "material": 0,
          "mode": 4
        }
      ]
    },
    {
      "primitives": [
        {
          "attributes": {
            "NORMAL": 6,
            "POSITION": 5,
            "TANGENT": 7,
            "TEXCOORD_0": 8
          },
          "indices": 9,
          "material": 1,
          "mode": 4
        }
      ]
    },
    {
      "primitives": [
        {
          "attributes": {
            "NORMAL": 11,
            "POSITION": 10,
            "TANGENT": 12,
            "TEXCOORD_0": 13
          },
          "indices": 14,
          "material": 2,
          "mode": 4
        }
      ]
    }
  ],
  "nodes": [
    {
      "children": [
        1
      ],
      "name": "RootNode (gltf orientation matrix)",
      "rotation": [
        -0.70710678118654746,
        -0,
        -0,
        0.70710678118654757
      ]
    },
    {
      "children": [
        2
      ],
      "name": "RootNode (model correction matrix)"
    },
    {
      "children": [
        3,
        4,
        5
      ],
      "name": "Broly.obj.cleaner.materialmerger.gles"
    },
    {
      "mesh": 0,
      "name": ""
    },
    {
      "mesh": 1,
      "name": ""
    },
    {
      "mesh": 2,
      "name": ""
    }
  ],
  "samplers": [
    {
      "magFilter": 9729,
      "minFilter": 9987,
      "wrapS": 10497,
      "wrapT": 10497
    }
  ],
  "scene": 0,
  "scenes": [
    {
      "name": "OSG_Scene",
      "nodes": [
        0
      ]
    }
  ],
  "textures": [
    {
      "sampler": 0,
      "source": 0
    },
    {
      "sampler": 0,
      "source": 1
    },
    {
      "sampler": 0,
      "source": 2
    }
  ]
}

